<svg width="80" height="80" viewBox="0 0 80 80" fill="none" xmlns="http://www.w3.org/2000/svg">
<rect width="80" height="80" rx="16" fill="#0D0D0D"/>
<path d="M40.4361 40.1227C41.4333 40.1227 42.297 39.7676 43.0273 39.0575C43.7576 38.3474 44.1227 37.4937 44.1227 36.4964C44.1227 35.4992 43.7581 34.6355 43.0291 33.9052C42.2999 33.175 41.4368 32.8098 40.4396 32.8098C39.4423 32.8098 38.5881 33.1744 37.8768 33.9035C37.1655 34.6326 36.8098 35.4958 36.8098 36.493C36.8098 37.4902 37.1649 38.3445 37.875 39.0558C38.5852 39.767 39.4388 40.1227 40.4361 40.1227ZM40.4472 60C40.1079 60 39.77 59.9435 39.4337 59.8304C39.0973 59.7174 38.7953 59.5613 38.5276 59.362C33.6196 54.9792 29.9714 50.9412 27.5828 47.248C25.1943 43.5547 24 40.0999 24 36.8834C24 31.736 25.6516 27.6353 28.9547 24.5812C32.2578 21.5271 36.0829 20 40.43 20C44.7771 20 48.6143 21.5271 51.9415 24.5812C55.2689 27.6353 56.9325 31.736 56.9325 36.8834C56.9325 40.093 55.7301 43.5461 53.3252 47.2427C50.9202 50.9394 47.2638 54.9792 42.3558 59.362C42.0954 59.5613 41.797 59.7174 41.4607 59.8304C41.1243 59.9435 40.7865 60 40.4472 60Z" fill="#44FF73"/>
<rect x="0.5" y="0.5" width="79" height="79" rx="15.5" stroke="white" stroke-opacity="0.15"/>
</svg>
