<svg width="80" height="80" viewBox="0 0 80 80" fill="none" xmlns="http://www.w3.org/2000/svg">
<rect width="80" height="80" rx="16" fill="#0D0D0D"/>
<path d="M29.0458 51.0065H50.9543C51.4423 51.0065 51.817 50.7838 52.0784 50.3383C52.3399 49.8927 52.3137 49.4706 52 49.0719L46.1438 40.9673C45.8649 40.6885 45.4989 40.549 45.0458 40.549C44.5926 40.549 44.2789 40.671 44.1046 40.915L38.1961 48.549L34.3791 43.268C34.1351 42.9891 33.7952 42.8497 33.3595 42.8497C32.9237 42.8497 32.6013 43.0065 32.3922 43.3203L28.1046 49.0719C27.7909 49.4706 27.7429 49.8927 27.9608 50.3383C28.1786 50.7838 28.5403 51.0065 29.0458 51.0065ZM24.7582 60C23.4667 60 22.3508 59.5299 21.4105 58.5895C20.4702 57.6492 20 56.5333 20 55.2418V24.8105C20 23.5046 20.4702 22.3763 21.4105 21.4258C22.3508 20.4753 23.4667 20 24.7582 20H55.1895C56.4954 20 57.6237 20.4753 58.5742 21.4258C59.5247 22.3763 60 23.5046 60 24.8105V55.2418C60 56.5333 59.5247 57.6492 58.5742 58.5895C57.6237 59.5299 56.4954 60 55.1895 60H24.7582Z" fill="#34FFF3"/>
<rect x="0.5" y="0.5" width="79" height="79" rx="15.5" stroke="white" stroke-opacity="0.15"/>
</svg>
