<svg width="80" height="80" viewBox="0 0 80 80" fill="none" xmlns="http://www.w3.org/2000/svg">
<rect width="80" height="80" rx="16" fill="#0D0D0D"/>
<path d="M35.1839 35.5635V44.484C35.1839 45.3381 35.5635 45.9786 36.3227 46.4057C37.0819 46.8327 37.8252 46.809 38.5528 46.3345L45.4804 41.8268C46.208 41.4291 46.5718 40.8394 46.5718 40.0576C46.5718 39.2758 46.208 38.6635 45.4804 38.2206L38.5528 33.7129C37.8252 33.2384 37.0819 33.2226 36.3227 33.6655C35.5635 34.1083 35.1839 34.741 35.1839 35.5635ZM39.9828 60C37.2694 60 34.6835 59.4799 32.2251 58.4396C29.7668 57.3993 27.6351 55.9773 25.8303 54.1736C24.0254 52.3699 22.6025 50.2396 21.5615 47.7829C20.5205 45.3261 20 42.7414 20 40.0289C20 37.2767 20.5245 34.6897 21.5735 32.2681C22.6226 29.8465 24.0463 27.7355 25.8446 25.9351C27.6429 24.1347 29.77 22.6954 32.2257 21.6173C34.6814 20.5391 37.2649 20 39.9763 20C42.7307 20 45.3171 20.5391 47.7355 21.6173C50.1538 22.6954 52.2634 24.1349 54.0642 25.9358C55.8651 27.7366 57.3046 29.8466 58.3827 32.2658C59.4609 34.685 60 37.2723 60 40.0277C60 42.7514 59.4609 45.3374 58.3827 47.7856C57.3046 50.2338 55.8653 52.3571 54.0649 54.1554C52.2645 55.9537 50.1556 57.3774 47.7384 58.4264C45.3212 59.4755 42.736 60 39.9828 60Z" fill="#FF4266"/>
<rect x="0.5" y="0.5" width="79" height="79" rx="15.5" stroke="white" stroke-opacity="0.15"/>
</svg>
