<svg width="80" height="80" viewBox="0 0 80 80" fill="none" xmlns="http://www.w3.org/2000/svg">
<rect width="80" height="80" rx="16" fill="#0D0D0D"/>
<path d="M29.5598 51.1716C26.3413 51.1716 23.61 50.0587 21.366 47.8328C19.122 45.6069 18 42.868 18 39.6159C18 36.3638 19.122 33.6148 21.366 31.3689C23.61 29.123 26.3413 28 29.5598 28H35.4438C36.1303 28 36.6924 28.2374 37.1303 28.7121C37.5681 29.1868 37.787 29.7564 37.787 30.4208C37.787 31.0853 37.5681 31.6464 37.1303 32.104C36.6924 32.5617 36.1303 32.7905 35.4438 32.7905H29.5598C27.5811 32.7905 25.9495 33.4327 24.6651 34.7172C23.3807 36.0016 22.7385 37.6331 22.7385 39.6118C22.7385 41.5905 23.3807 43.2221 24.6651 44.5065C25.9495 45.7909 27.5811 46.4331 29.5598 46.4331H35.4438C36.1303 46.4331 36.6924 46.6618 37.1303 47.1192C37.5681 47.5766 37.787 48.1375 37.787 48.8019C37.787 49.4664 37.5681 50.0274 37.1303 50.4851C36.6924 50.9428 36.1303 51.1716 35.4438 51.1716H29.5598ZM32.9444 41.4343C32.349 41.4343 31.8964 41.2667 31.5866 40.9313C31.2768 40.596 31.1219 40.1586 31.1219 39.6191C31.1219 39.045 31.2768 38.6051 31.5866 38.2996C31.8964 37.9942 32.349 37.8414 32.9444 37.8414H47.0556C47.6171 37.8414 48.0526 37.9972 48.362 38.3088C48.6714 38.6203 48.826 39.0632 48.826 39.6374C48.826 40.1769 48.6714 40.6112 48.362 40.9405C48.0526 41.2697 47.6171 41.4343 47.0556 41.4343H32.9444ZM44.6083 51.1716C43.8533 51.1716 43.2566 50.9397 42.8183 50.4759C42.3801 50.0122 42.1609 49.4481 42.1609 48.7836C42.1609 48.1192 42.3801 47.5613 42.8183 47.1101C43.2566 46.6588 43.8533 46.4331 44.6083 46.4331H50.3882C52.3669 46.4331 53.9984 45.7909 55.2828 44.5065C56.5673 43.2221 57.2095 41.5905 57.2095 39.6118C57.2095 37.6331 56.5673 36.0016 55.2828 34.7172C53.9984 33.4327 52.3669 32.7905 50.3882 32.7905H44.6083C43.8533 32.7905 43.2566 32.5586 42.8183 32.0949C42.3801 31.6311 42.1609 31.067 42.1609 30.4026C42.1609 29.7381 42.3801 29.1716 42.8183 28.703C43.2566 28.2343 43.8533 28 44.6083 28H50.3882C53.6067 28 56.3466 29.1216 58.6079 31.3648C60.8693 33.608 62 36.3557 62 39.6078C62 42.8599 60.8693 45.6002 58.6079 47.8287C56.3466 50.0573 53.6067 51.1716 50.3882 51.1716H44.6083Z" fill="#6462FF"/>
<rect x="0.5" y="0.5" width="79" height="79" rx="15.5" stroke="white" stroke-opacity="0.15"/>
</svg>
