<svg width="80" height="80" viewBox="0 0 80 80" fill="none" xmlns="http://www.w3.org/2000/svg">
<rect width="80" height="80" rx="16" fill="#0D0D0D"/>
<path d="M40.0721 44.7843C42.1549 44.7843 43.9141 44.0622 45.3498 42.6181C46.7854 41.1739 47.5033 39.4058 47.5033 37.3135C47.5033 35.2307 46.7876 33.4802 45.3561 32.062C43.9247 30.6438 42.1675 29.9346 40.0848 29.9346C38.0368 29.9346 36.2863 30.6416 34.8333 32.0556C33.3801 33.4697 32.6536 35.2268 32.6536 37.327C32.6536 39.3924 33.378 41.1516 34.8269 42.6047C36.2758 44.0578 38.0242 44.7843 40.0721 44.7843ZM24.7582 60C23.4623 60 22.3453 59.5309 21.4072 58.5928C20.4691 57.6547 20 56.5377 20 55.2418V24.8105C20 23.5002 20.4691 22.3709 21.4072 21.4225C22.3453 20.4742 23.4623 20 24.7582 20H55.1895C56.4998 20 57.6291 20.4742 58.5775 21.4225C59.5258 22.3709 60 23.5002 60 24.8105V55.2418C60 56.5377 59.5258 57.6547 58.5775 58.5928C57.6291 59.5309 56.4998 60 55.1895 60H24.7582ZM24.7582 55.2418H55.1895V52.4706C53.1329 50.6231 50.8529 49.1765 48.3495 48.1307C45.8461 47.085 43.0542 46.5621 39.9739 46.5621C36.8935 46.5621 34.1016 47.1024 31.5982 48.183C29.0948 49.2636 26.8148 50.7277 24.7582 52.5752V55.2418Z" fill="#B71FFF"/>
<rect x="0.5" y="0.5" width="79" height="79" rx="15.5" stroke="white" stroke-opacity="0.15"/>
</svg>
