<svg width="80" height="80" viewBox="0 0 80 80" fill="none" xmlns="http://www.w3.org/2000/svg">
<rect width="80" height="80" rx="16" fill="#0D0D0D"/>
<path d="M35.5826 60C33.1717 60 31.1385 59.1852 29.4831 57.5556C27.8277 55.926 27 53.8973 27 51.4694C27 49.0763 27.8148 47.0563 29.4444 45.4093C31.074 43.7624 33.1027 42.9389 35.5306 42.9389C36.2996 42.9389 37.012 43.0429 37.6678 43.251C38.3236 43.459 38.8769 43.7365 39.3277 44.0832V24.7854C39.3277 23.4872 39.792 22.3651 40.7207 21.419C41.6494 20.473 42.7802 20 44.1131 20H49.7308C50.8752 20 51.8721 20.4161 52.7217 21.2484C53.5713 22.0806 53.9961 23.0804 53.9961 24.2478C53.9961 25.4845 53.5713 26.5248 52.7217 27.3687C51.8721 28.2126 50.8752 28.6346 49.7308 28.6346H44.1131V51.4694C44.1131 53.8973 43.281 55.926 41.6167 57.5556C39.9524 59.1852 37.941 60 35.5826 60Z" fill="#FDA428"/>
<rect x="0.5" y="0.5" width="79" height="79" rx="15.5" stroke="white" stroke-opacity="0.15"/>
</svg>
